<svg width="33" height="33" viewBox="0 0 33 33" fill="none" xmlns="http://www.w3.org/2000/svg">
<path d="M27.4405 20.8702C27.3477 20.9632 27.2374 21.037 27.116 21.0873C26.9946 21.1376 26.8645 21.1635 26.733 21.1635C26.6016 21.1635 26.4715 21.1376 26.3501 21.0873C26.2287 21.037 26.1184 20.9632 26.0255 20.8702L16.733 11.5765L7.44054 20.8702C7.2529 21.0579 6.9984 21.1633 6.73304 21.1633C6.46767 21.1633 6.21318 21.0579 6.02554 20.8702C5.8379 20.6826 5.73248 20.4281 5.73248 20.1627C5.73248 19.8974 5.8379 19.6429 6.02554 19.4552L16.0255 9.45524C16.1184 9.36227 16.2287 9.28851 16.3501 9.23818C16.4715 9.18786 16.6016 9.16196 16.733 9.16196C16.8645 9.16196 16.9946 9.18786 17.116 9.23818C17.2374 9.28851 17.3477 9.36227 17.4405 9.45524L27.4405 19.4552C27.5335 19.5481 27.6073 19.6584 27.6576 19.7798C27.7079 19.9012 27.7338 20.0313 27.7338 20.1627C27.7338 20.2942 27.7079 20.4243 27.6576 20.5457C27.6073 20.6671 27.5335 20.7774 27.4405 20.8702Z" fill="#fff"/>
</svg>
