<svg width="84" height="84" viewBox="0 0 84 84" fill="none" xmlns="http://www.w3.org/2000/svg">
<path d="M38.4727 51.8174C41.9908 49.4752 44.6618 46.063 46.0907 42.0854C47.5196 38.1078 47.6306 33.7759 46.4071 29.7304C45.1836 25.6848 42.6907 22.1404 39.297 19.6212C35.9033 17.1021 31.789 15.7419 27.5625 15.7419C23.336 15.7419 19.2217 17.1021 15.828 19.6212C12.4343 22.1404 9.94139 25.6848 8.71792 29.7304C7.49444 33.7759 7.60535 38.1078 9.03425 42.0854C10.4632 46.063 13.1342 49.4752 16.6523 51.8174C10.2883 54.163 4.85331 58.5034 1.15828 64.191C0.964078 64.4797 0.829188 64.804 0.761446 65.1452C0.693704 65.4865 0.694463 65.8377 0.763677 66.1787C0.832892 66.5196 0.969181 66.8433 1.16462 67.1311C1.36007 67.4189 1.61076 67.665 1.90214 67.855C2.19352 68.0451 2.51977 68.1753 2.86193 68.2382C3.20408 68.301 3.55532 68.2953 3.89522 68.2212C4.23512 68.1471 4.5569 68.0062 4.84187 67.8066C5.12683 67.6071 5.36929 67.3529 5.55515 67.0588C7.93862 63.393 11.2001 60.3806 15.0433 58.2952C18.8866 56.2098 23.1899 55.1175 27.5625 55.1175C31.9351 55.1175 36.2384 56.2098 40.0817 58.2952C43.9249 60.3806 47.1864 63.393 49.5698 67.0588C49.9548 67.6311 50.5496 68.0288 51.2255 68.166C51.9014 68.3032 52.6041 68.1689 53.1818 67.7921C53.7595 67.4154 54.1657 66.8264 54.3125 66.1525C54.4594 65.4786 54.3352 64.774 53.9667 64.191C50.2717 58.5034 44.8367 54.163 38.4727 51.8174ZM13.125 35.4374C13.125 32.582 13.9717 29.7906 15.5582 27.4164C17.1446 25.0422 19.3994 23.1917 22.0375 22.0989C24.6756 21.0062 27.5785 20.7203 30.3791 21.2773C33.1797 21.8344 35.7522 23.2095 37.7714 25.2286C39.7905 27.2477 41.1655 29.8202 41.7226 32.6208C42.2797 35.4214 41.9937 38.3243 40.901 40.9624C39.8083 43.6005 37.9578 45.8554 35.5835 47.4418C33.2093 49.0282 30.418 49.8749 27.5625 49.8749C23.7348 49.8706 20.0651 48.3481 17.3584 45.6415C14.6518 42.9349 13.1293 39.2652 13.125 35.4374ZM82.0772 67.8234C81.4941 68.2036 80.7839 68.3367 80.1027 68.1933C79.4215 68.0499 78.8252 67.6418 78.4448 67.0588C76.0642 63.3908 72.8032 60.3771 68.9592 58.2926C65.1151 56.2081 60.8104 55.1191 56.4375 55.1249C55.7413 55.1249 55.0736 54.8484 54.5813 54.3561C54.0891 53.8638 53.8125 53.1961 53.8125 52.4999C53.8125 51.8037 54.0891 51.1361 54.5813 50.6438C55.0736 50.1515 55.7413 49.8749 56.4375 49.8749C58.5636 49.8729 60.6631 49.4014 62.5859 48.4939C64.5087 47.5864 66.2073 46.2655 67.5603 44.6255C68.9134 42.9855 69.8876 41.0668 70.4132 39.0067C70.9389 36.9465 71.003 34.7957 70.601 32.7079C70.1991 30.6201 69.3409 28.6469 68.0879 26.9291C66.835 25.2114 65.2181 23.7916 63.3528 22.7713C61.4875 21.7509 59.4198 21.1551 57.2976 21.0264C55.1753 20.8977 53.0508 21.2394 51.0759 22.027C50.7539 22.1662 50.4073 22.2394 50.0565 22.2424C49.7057 22.2453 49.3579 22.178 49.0336 22.0442C48.7093 21.9105 48.4151 21.7131 48.1683 21.4637C47.9216 21.2144 47.7274 20.9181 47.5971 20.5924C47.4668 20.2667 47.4031 19.9181 47.4098 19.5674C47.4165 19.2167 47.4934 18.8708 47.636 18.5503C47.7786 18.2298 47.984 17.9411 48.2401 17.7014C48.4962 17.4616 48.7977 17.2756 49.1269 17.1543C53.6467 15.3518 58.6739 15.2869 63.2387 16.9722C67.8035 18.6575 71.5824 21.9737 73.8465 26.2808C76.1106 30.588 76.6993 35.581 75.4993 40.2967C74.2992 45.0124 71.3952 49.1165 67.3477 51.8174C73.7117 54.163 79.1467 58.5034 82.8417 64.191C83.2219 64.7741 83.355 65.4843 83.2116 66.1655C83.0683 66.8467 82.6602 67.443 82.0772 67.8234Z" fill="#FBFBFB"/>
</svg>
