<svg width="69" height="69" viewBox="0 0 69 69" fill="none" xmlns="http://www.w3.org/2000/svg">
<path d="M62.2401 57.1406C58.1351 50.0439 51.8092 44.9551 44.4268 42.5428C48.0785 40.3689 50.9156 37.0565 52.5025 33.1141C54.0894 29.1717 54.3383 24.8174 53.211 20.7198C52.0836 16.6223 49.6424 13.0081 46.2622 10.4323C42.882 7.85646 38.7497 6.46143 34.5 6.46143C30.2502 6.46143 26.1179 7.85646 22.7377 10.4323C19.3575 13.0081 16.9163 16.6223 15.7889 20.7198C14.6616 24.8174 14.9105 29.1717 16.4974 33.1141C18.0843 37.0565 20.9214 40.3689 24.5731 42.5428C17.1907 44.9524 10.8648 50.0412 6.7598 57.1406C6.60926 57.3861 6.50941 57.6592 6.46614 57.9439C6.42287 58.2286 6.43705 58.519 6.50785 58.7981C6.57865 59.0772 6.70463 59.3393 6.87837 59.5689C7.0521 59.7986 7.27007 59.9911 7.5194 60.1351C7.76874 60.2791 8.04439 60.3717 8.33011 60.4075C8.61582 60.4432 8.9058 60.4214 9.18294 60.3433C9.46008 60.2652 9.71877 60.1323 9.94373 59.9526C10.1687 59.7729 10.3554 59.5499 10.4928 59.2969C15.5708 50.5209 24.5462 45.2813 34.5 45.2813C44.4537 45.2813 53.4291 50.5209 58.5071 59.2969C58.6445 59.5499 58.8312 59.7729 59.0562 59.9526C59.2811 60.1323 59.5398 60.2652 59.817 60.3433C60.0941 60.4214 60.3841 60.4432 60.6698 60.4075C60.9555 60.3717 61.2312 60.2791 61.4805 60.1351C61.7298 59.9911 61.9478 59.7986 62.1215 59.5689C62.2953 59.3393 62.4212 59.0772 62.4921 58.7981C62.5629 58.519 62.577 58.2286 62.5338 57.9439C62.4905 57.6592 62.3906 57.3861 62.2401 57.1406ZM19.4062 25.875C19.4062 22.8897 20.2914 19.9715 21.95 17.4894C23.6085 15.0072 25.9658 13.0726 28.7238 11.9302C31.4818 10.7878 34.5167 10.4889 37.4446 11.0713C40.3725 11.6537 43.0619 13.0912 45.1728 15.2021C47.2837 17.313 48.7213 20.0025 49.3037 22.9304C49.8861 25.8583 49.5872 28.8931 48.4448 31.6511C47.3023 34.4092 45.3677 36.7665 42.8856 38.425C40.4034 40.0835 37.4852 40.9688 34.5 40.9688C30.4982 40.9645 26.6615 39.3729 23.8318 36.5432C21.0021 33.7135 19.4105 29.8768 19.4062 25.875Z" fill="black"/>
</svg>
